<svg xmlns="http://www.w3.org/2000/svg" viewBox="0 0 128 128" role="img" aria-labelledby="title desc">
  <title id="title">eLibrary logo</title>
  <desc id="desc">An open book connected to library network nodes.</desc>
  <rect width="128" height="128" rx="24" fill="#F7FAF9"/>
  <path d="M24 34c16 0 28 4 40 14v52c-12-10-24-14-40-14V34Z" fill="#FFFFFF" stroke="#00505A" stroke-width="6" stroke-linejoin="round"/>
  <path d="M104 34c-16 0-28 4-40 14v52c12-10 24-14 40-14V34Z" fill="#FFFFFF" stroke="#00505A" stroke-width="6" stroke-linejoin="round"/>
  <path d="M64 48v52" stroke="#00505A" stroke-width="6" stroke-linecap="round"/>
  <path d="M38 53c8 1 15 3 21 7M38 68c8 1 15 3 21 7M90 53c-8 1-15 3-21 7M90 68c-8 1-15 3-21 7" stroke="#159A9C" stroke-width="4" stroke-linecap="round"/>
  <path d="M36 94h56" stroke="#00505A" stroke-width="6" stroke-linecap="round"/>
  <circle cx="31" cy="98" r="6" fill="#159A9C"/>
  <circle cx="64" cy="108" r="6" fill="#F5B31A"/>
  <circle cx="97" cy="98" r="6" fill="#61B547"/>
  <path d="M37 99l21 7M70 106l21-7" stroke="#159A9C" stroke-width="3" stroke-linecap="round"/>
</svg>
